<svg xmlns="http://www.w3.org/2000/svg" width="477" height="121"><path d="M279.124 116.054l-9.491-63.551-.55-4.265h-.825v67.816h-13.756V14.95h18.157l8.804 46.22.687 5.364h.276l.687-5.364 8.804-46.22h18.158v101.105h-13.756V48.238h-.825l-.55 4.265-9.492 63.551zM359.046 14.95v80.333a27.547 27.547 0 01-2.476 11.005 18.924 18.924 0 01-5.915 7.428c-2.75 2.2-6.465 3.439-11.417 3.439s-8.803-1.238-11.555-3.44a18.546 18.546 0 01-5.777-7.427 27.547 27.547 0 01-2.476-11.005V14.949h14.856v80.334c0 2.888.688 4.814 2.063 6.328a3.943 3.943 0 002.89 1.1c2.613 0 3.851-1.65 4.401-3.714a9.615 9.615 0 00.55-3.714V14.949zm33.978 27.098c0-3.301-.137-7.015-1.1-9.904-.963-2.751-2.477-4.677-4.815-4.677-3.851.138-5.09 4.127-5.09 10.042 0 3.439 1.513 7.015 3.714 10.867s5.09 7.84 7.979 12.105a155.432 155.432 0 019.491 15.406c2.614 5.09 4.402 10.318 4.402 15.82 0 6.74-1.1 13.068-4.264 17.745s-8.253 7.703-16.37 7.703c-9.49 0-14.856-3.576-17.882-9.08s-3.714-12.792-3.714-20.358l14.581-1.376c0 4.265.138 8.53 1.238 11.693.963 3.302 2.614 5.503 5.778 5.503 4.4 0 6.052-4.677 6.052-11.143 0-3.3-1.651-7.152-3.851-11.141-1.238-1.926-2.477-3.99-3.852-6.053a478.432 478.432 0 01-9.354-13.894 57.677 57.677 0 01-7.29-15.681 26.985 26.985 0 01-1.239-8.116c0-5.502 1.239-11.417 4.402-15.957a18.034 18.034 0 0114.994-7.703c8.941-.138 14.169 3.576 17.058 8.941 2.888 5.502 3.713 12.243 3.713 17.883zM414.07 14.95h14.856v101.104h-14.857zm63 66.44v13.893a27.54 27.54 0 01-2.477 11.005 18.915 18.915 0 01-5.915 7.428c-2.75 2.2-6.464 3.439-11.417 3.439s-8.803-1.238-11.554-3.44a18.55 18.55 0 01-5.778-7.427 27.54 27.54 0 01-2.476-11.005V35.72a27.41 27.41 0 012.477-10.867 18.94 18.94 0 015.777-7.565 18.924 18.924 0 0111.555-3.44 18.488 18.488 0 0111.417 3.44 19.302 19.302 0 015.915 7.565 27.412 27.412 0 012.476 10.867v13.894h-13.893V35.72a8.66 8.66 0 00-2.201-6.328 4.9 4.9 0 00-3.439-1.1c-2.613 0-3.851 1.926-4.54 3.714a14.899 14.899 0 00-.687 3.714v59.563a9.49 9.49 0 002.339 6.328 3.94 3.94 0 002.888 1.1 4.792 4.792 0 005.09-3.714 9.625 9.625 0 00.55-3.714V81.389z" fill="none" stroke="#fff" stroke-miterlimit="10" stroke-width=".5"/><path d="M279.124 110.973l-9.491-63.552-.55-4.264h-.825v67.816h-13.756V9.868h18.157l8.804 46.219.687 5.365h.276l.687-5.365 8.804-46.22h18.158v101.106h-13.756V43.157h-.825l-.55 4.264-9.492 63.552zM359.047 9.868V90.2a27.557 27.557 0 01-2.477 11.005 18.933 18.933 0 01-5.915 7.428c-2.75 2.201-6.466 3.44-11.417 3.44s-8.803-1.239-11.554-3.44a18.538 18.538 0 01-5.778-7.428A27.548 27.548 0 01319.43 90.2V9.868h14.856V90.2c0 2.889.688 4.815 2.064 6.328a3.94 3.94 0 002.889 1.1c2.613 0 3.851-1.65 4.402-3.714a9.626 9.626 0 00.549-3.714V9.868zm33.977 27.098c0-3.301-.137-7.015-1.1-9.904-.963-2.751-2.477-4.677-4.815-4.677-3.851.138-5.09 4.127-5.09 10.042 0 3.44 1.513 7.015 3.714 10.867s5.09 7.84 7.979 12.105a155.432 155.432 0 019.491 15.407c2.614 5.09 4.402 10.317 4.402 15.819 0 6.74-1.1 13.068-4.264 17.745s-8.253 7.703-16.37 7.703c-9.49 0-14.856-3.576-17.882-9.079s-3.714-12.793-3.714-20.358l14.581-1.376c0 4.265.138 8.53 1.238 11.692.963 3.302 2.614 5.503 5.778 5.503 4.401 0 6.052-4.676 6.052-11.142 0-3.301-1.651-7.153-3.851-11.142-1.238-1.926-2.477-3.99-3.852-6.053a478.294 478.294 0 01-9.354-13.893 57.677 57.677 0 01-7.29-15.682 26.985 26.985 0 01-1.239-8.116c0-5.502 1.239-11.417 4.402-15.957a18.034 18.034 0 0114.994-7.703c8.941-.138 14.169 3.577 17.058 8.941 2.888 5.502 3.713 12.243 3.713 17.883zM414.07 9.868h14.856v101.105h-14.857zm63 66.44V90.2a27.542 27.542 0 01-2.477 11.005 18.915 18.915 0 01-5.915 7.428c-2.75 2.201-6.464 3.44-11.417 3.44s-8.803-1.239-11.554-3.44a18.551 18.551 0 01-5.778-7.428 27.54 27.54 0 01-2.476-11.005V30.64a27.41 27.41 0 012.477-10.867 18.939 18.939 0 015.777-7.566 18.923 18.923 0 0111.555-3.439 18.487 18.487 0 0111.417 3.44 19.3 19.3 0 015.915 7.564 27.412 27.412 0 012.476 10.868v13.893h-13.893V30.64a8.66 8.66 0 00-2.201-6.328 4.9 4.9 0 00-3.439-1.1c-2.613 0-3.851 1.926-4.54 3.714a14.899 14.899 0 00-.687 3.714V90.2a9.49 9.49 0 002.338 6.328 3.94 3.94 0 002.89 1.1 4.792 4.792 0 005.09-3.714 9.625 9.625 0 00.55-3.714V76.308zm-281.532 0V90.2a27.54 27.54 0 01-2.477 11.005 18.915 18.915 0 01-5.915 7.428c-2.75 2.201-6.464 3.44-11.416 3.44s-8.804-1.239-11.555-3.44a18.55 18.55 0 01-5.778-7.428 27.54 27.54 0 01-2.476-11.005V30.64a27.41 27.41 0 012.477-10.867 18.937 18.937 0 015.777-7.566 18.923 18.923 0 0111.555-3.439 18.487 18.487 0 0111.417 3.44 19.3 19.3 0 015.915 7.564 27.41 27.41 0 012.477 10.868v13.893h-13.894V30.64a8.661 8.661 0 00-2.202-6.328 4.9 4.9 0 00-3.438-1.1c-2.614 0-3.852 1.926-4.54 3.714a14.899 14.899 0 00-.688 3.714V90.2a9.49 9.49 0 002.34 6.328 3.94 3.94 0 002.888 1.1 4.792 4.792 0 005.09-3.714 9.625 9.625 0 00.55-3.714V76.308zm5.777-45.669a28.52 28.52 0 012.89-12.793c2.612-4.815 7.29-9.079 16.506-9.079 8.941 0 13.893 4.264 16.507 9.079a28.507 28.507 0 012.888 12.793v57.499c0 3.714-.136 9.63-2.75 14.58-2.614 5.09-7.29 9.355-16.645 9.355s-14.03-4.264-16.645-9.354c-2.613-4.951-2.75-10.867-2.75-14.581V81.81h14.856c0 6.74.138 11.142.687 13.756s1.65 3.577 3.852 3.577a3.672 3.672 0 003.714-2.614 30.737 30.737 0 00.826-8.391V69.155c-2.614 1.513-4.814 2.476-7.429 2.476-7.703 0-11.83-3.988-14.03-8.529s-2.476-10.041-2.476-12.792zm23.936-4.402c0-1.238-1.1-4.54-4.54-4.54-3.164 0-4.539 3.302-4.539 4.54v29.3c0 1.238 1.375 4.54 4.539 4.54a4.503 4.503 0 004.54-4.127z" fill="#fff"/><path d="M195.538 81.308V95.2a27.54 27.54 0 01-2.477 11.005 18.915 18.915 0 01-5.915 7.428c-2.75 2.201-6.464 3.44-11.416 3.44s-8.804-1.239-11.555-3.44a18.55 18.55 0 01-5.778-7.428 27.54 27.54 0 01-2.476-11.005V35.64a27.41 27.41 0 012.477-10.868 18.937 18.937 0 015.777-7.565 18.923 18.923 0 0111.554-3.439 18.487 18.487 0 0111.417 3.44 19.3 19.3 0 015.916 7.564 27.41 27.41 0 012.476 10.868v13.893h-13.894V35.64a8.661 8.661 0 00-2.2-6.328 4.9 4.9 0 00-3.44-1.1c-2.613 0-3.85 1.926-4.54 3.714a14.899 14.899 0 00-.687 3.714V95.2a9.49 9.49 0 002.34 6.328 3.94 3.94 0 002.888 1.1 4.792 4.792 0 005.09-3.714 9.625 9.625 0 00.55-3.714V81.308zm5.777-45.669a28.52 28.52 0 012.89-12.793c2.612-4.815 7.29-9.079 16.506-9.079 8.941 0 13.893 4.264 16.507 9.079a28.507 28.507 0 012.888 12.793v57.499c0 3.714-.136 9.63-2.75 14.58-2.614 5.09-7.29 9.355-16.645 9.355s-14.03-4.264-16.645-9.354c-2.613-4.951-2.75-10.867-2.75-14.581V86.81h14.856c0 6.74.138 11.142.687 13.756s1.65 3.577 3.852 3.577a3.672 3.672 0 003.714-2.614 30.737 30.737 0 00.826-8.391V74.155c-2.614 1.513-4.814 2.476-7.429 2.476-7.703 0-11.83-3.988-14.03-8.529s-2.476-10.042-2.476-12.792zm23.936-4.402c0-1.238-1.1-4.54-4.54-4.54-3.164 0-4.539 3.302-4.539 4.54v29.3c0 1.238 1.375 4.54 4.539 4.54a4.503 4.503 0 004.54-4.127zM29.167 93.362c-4.053-8.655-3.765-62.133 22.335-70.696 0 0-9.56 4.456-6.186 16.778 4.4-8.361 12.426-22.75 35.311-26.564 14.67-1.767-8.038.672-3.667 13.582.147-5.428 36.314-27.506 66.014-12.11 8.093 58.613-34.346 61.895-34.346 61.895h0s9.138 1.455 14.566-.305c-5.574 24.351-38.588 25.757-38.588 25.757s12.537 3.124 21.345 1.51c-30.226 19.804-71.43-2.97-71.43-2.97-.165.049-.507-.263-.966-.801l68.46-47.677a15.336 15.336 0 10-3.668-3.832l-49.07 34.639-1.363-1.987-18.698 12.836m83.52-63.82a9.943 9.943 0 11-.017-.003zM33.55 99.437l-.238-.335.262.317h0zm-21.045-4.003l5.164-3.362 3.362 5.16-5.159 3.36zm-2.672 9.09l-3.361-5.16 5.165-3.362 3.361 5.16zM3.8 108.477l-3.362-5.165 5.165-3.362 3.362 5.159zM32.443 100L8.635 115.727l-4.248-6.32L27.945 94.12l4.48 5.88z" fill="none" stroke="#fff" stroke-miterlimit="10" stroke-width=".5"/></svg>